<?xml version="1.0"?>
<svg xmlns="http://www.w3.org/2000/svg" viewBox="0 0 50 50">
    <path style="text-indent:0;text-align:start;line-height:normal;text-transform:none;block-progression:tb;-inkscape-font-specification:Sans" d="M 19.8125 1.96875 L 19.59375 2.09375 L 8.59375 7.09375 L 8.28125 7.21875 L 8.125 7.53125 L 2.125 18.53125 L 1.96875 18.78125 L 2 19.0625 L 3 34.0625 L 3.03125 34.40625 L 3.25 34.6875 L 13.25 45.6875 L 13.5 45.9375 L 13.84375 46 L 27.84375 48 L 28.125 48.03125 L 28.375 47.9375 L 40.375 42.9375 L 40.65625 42.8125 L 40.8125 42.59375 L 45.8125 35.59375 L 45.9375 35.375 L 46 35.15625 L 48 22.15625 L 48.03125 21.90625 L 47.9375 21.65625 L 43.9375 10.65625 L 43.84375 10.375 L 43.5625 10.1875 L 33.5625 3.1875 L 33.34375 3.03125 L 33.0625 3 L 20.0625 2 L 19.8125 1.96875 z M 19.84375 4.15625 L 22.34375 6.15625 L 14.375 6.65625 L 19.84375 4.15625 z M 23.15625 4.25 L 28.4375 4.65625 L 25.1875 5.875 L 23.15625 4.25 z M 32.59375 5.21875 L 36.28125 10.75 L 27.65625 7.0625 L 32.59375 5.21875 z M 36.78125 7.84375 L 41.03125 10.84375 L 39.34375 11.6875 L 36.78125 7.84375 z M 22.65625 8.15625 L 16.96875 14.53125 L 11.3125 8.875 L 22.65625 8.15625 z M 26.53125 8.71875 L 37.09375 13.25 L 29.5625 19.28125 L 26.53125 8.71875 z M 24.53125 9.03125 L 27.46875 19.25 L 18.6875 15.59375 L 24.53125 9.03125 z M 9.875 10.3125 L 15.625 16.0625 L 9.15625 23.21875 L 9.875 10.3125 z M 7.75 12.375 L 7.15625 23.09375 L 4.1875 18.9375 L 7.75 12.375 z M 42.4375 12.40625 L 45.71875 21.40625 L 42.65625 22.65625 L 40.1875 13.53125 L 42.4375 12.40625 z M 38.4375 14.71875 L 40.59375 22.65625 L 31.21875 20.5 L 38.4375 14.71875 z M 18.09375 17.5625 L 27.21875 21.34375 L 18.875 29.6875 L 18.09375 17.5625 z M 16.15625 18.4375 L 16.875 30.1875 L 9.53125 25.78125 L 16.15625 18.4375 z M 30.40625 22.34375 L 40.28125 24.625 L 33.4375 33.71875 L 30.40625 22.34375 z M 4.25 22.46875 L 6.84375 26.09375 L 4.75 30.25 L 4.25 22.46875 z M 28.5 22.9375 L 31.59375 34.5625 L 19.96875 31.46875 L 28.5 22.9375 z M 45.71875 23.59375 L 44.71875 30.1875 L 43.1875 24.59375 L 45.71875 23.59375 z M 41.5625 26.25 L 43.71875 34.09375 L 35.15625 34.8125 L 41.5625 26.25 z M 9.59375 28.09375 L 16.1875 32.0625 L 11.59375 35.34375 L 9.59375 28.09375 z M 7.71875 28.8125 L 9.5 35.28125 L 5.375 33.5 L 7.71875 28.8125 z M 17.71875 33.4375 L 22.4375 40.8125 L 13.03125 36.78125 L 17.71875 33.4375 z M 20.25 33.625 L 30.9375 36.46875 L 25.21875 41.46875 L 20.25 33.625 z M 42.90625 36.1875 L 39.8125 40.53125 L 35.46875 36.8125 L 42.90625 36.1875 z M 7.84375 36.71875 L 10.21875 37.75 L 11.25 40.46875 L 7.84375 36.71875 z M 33 37.3125 L 37.5 41.15625 L 27.875 41.8125 L 33 37.3125 z M 12.75 38.84375 L 21.59375 42.625 L 14.625 43.875 L 12.75 38.84375 z M 34.03125 43.40625 L 28.34375 45.78125 L 26.90625 43.875 L 34.03125 43.40625 z M 24.5625 44.09375 L 25.75 45.65625 L 20.21875 44.875 L 24.5625 44.09375 z"/>
</svg>
